<?xml version="1.0" standalone="no"?>
<!DOCTYPE svg PUBLIC "-//W3C//DTD SVG 20010904//EN"
 "http://www.w3.org/TR/2001/REC-SVG-20010904/DTD/svg10.dtd">
<svg version="1.0" xmlns="http://www.w3.org/2000/svg"
 width="300.000000pt" height="203.000000pt" viewBox="0 0 300.000000 203.000000"
 preserveAspectRatio="xMidYMid meet">

<g transform="translate(0.000000,203.000000) scale(0.100000,-0.100000)"
fill="#F472B6" stroke="#F472B6"  stroke-width="24">
<path d="M2049 1374 c-24 -6 -82 -26 -129 -43 -57 -21 -104 -31 -142 -31 -53
0 -62 -4 -124 -51 -107 -80 -184 -152 -184 -170 0 -9 14 -22 31 -29 38 -16
109 -2 187 37 40 20 58 24 70 17 29 -19 53 -60 59 -102 10 -76 -30 -137 -202
-307 -149 -147 -178 -186 -156 -208 21 -21 84 8 229 108 10 7 16 6 19 -2 3 -7
18 -13 34 -13 17 0 42 -9 57 -20 53 -39 280 -23 395 28 29 13 55 35 74 63 40
59 109 211 126 279 9 33 20 56 29 58 9 2 60 -6 116 -18 55 -11 105 -20 110
-20 6 0 24 33 41 74 25 61 31 88 31 151 0 97 -17 139 -62 153 -18 6 -127 16
-241 22 -115 6 -214 13 -220 16 -44 16 -108 20 -148 8z m196 -33 c39 -5 139
-13 222 -17 113 -5 156 -11 165 -21 19 -24 36 -137 27 -190 -10 -62 -34 -119
-54 -127 -13 -5 -99 9 -191 31 -18 4 -22 -2 -33 -52 -28 -126 -123 -314 -174
-346 -41 -24 -124 -49 -191 -55 l-51 -6 55 32 c66 37 150 117 150 142 0 24
-17 23 -25 -2 -8 -24 -37 -26 -59 -4 -20 19 -20 28 -1 44 17 14 20 40 6 40 -6
0 -17 -12 -26 -27 -34 -57 -259 -196 -309 -191 -46 5 -41 22 16 65 62 46 199
181 224 218 9 14 13 32 9 42 -5 15 -9 12 -21 -16 -31 -74 -298 -305 -428 -371
-63 -32 -86 -37 -86 -18 0 6 69 79 153 162 128 126 159 162 187 218 28 59 32
75 26 115 -7 53 -30 91 -69 113 -24 13 -30 13 -82 -13 -31 -15 -61 -25 -66
-22 -5 4 -16 -1 -25 -9 -21 -22 -93 -21 -101 0 -4 10 1 20 12 27 10 5 51 39
92 74 40 35 79 63 86 62 22 -4 46 12 40 27 -3 9 2 14 17 14 19 0 21 -4 16 -27
l-6 -28 22 26 c15 17 37 29 64 33 23 3 82 22 130 41 96 38 112 39 279 16z
m434 -99 c-1 -42 -2 -44 -9 -17 -11 45 -11 77 0 70 6 -3 9 -27 9 -53z m-610
-549 c12 -14 20 -27 19 -28 -31 -26 -168 -98 -193 -102 -36 -6 -85 3 -85 15 0
4 35 26 78 49 42 23 92 53 111 67 43 32 45 32 70 -1z"/>
<path d="M2047 974 c-25 -33 -11 -46 13 -14 11 14 20 28 20 33 0 14 -15 6 -33
-19z"/>
<path d="M1709 701 c-19 -16 -22 -22 -11 -32 9 -10 15 -10 24 -1 7 7 8 12 3
12 -4 0 0 9 10 20 23 26 5 26 -26 1z"/>
<path d="M735 1368 c-66 -4 -187 -10 -269 -12 -180 -4 -181 -6 -195 -116 -12
-90 -1 -155 36 -229 38 -73 51 -80 110 -57 98 37 99 37 122 -40 11 -38 30
-112 42 -164 12 -52 31 -113 43 -135 20 -37 29 -42 116 -73 68 -23 105 -31
130 -27 19 3 53 8 75 12 22 3 49 12 60 19 11 8 36 14 57 14 20 0 48 5 61 11
21 10 34 6 92 -27 37 -20 92 -43 121 -50 134 -31 122 30 -26 133 -46 31 -110
100 -214 231 -49 61 -60 81 -64 121 -11 119 60 147 226 90 80 -28 143 -34 167
-16 19 14 16 19 -75 112 -52 53 -103 101 -113 107 -10 5 -56 13 -102 18 -83 9
-109 18 -174 65 -37 27 -33 27 -226 13z m242 -49 c53 -35 74 -42 128 -46 50
-5 66 -10 70 -23 8 -25 31 -32 45 -15 7 8 16 12 22 9 5 -3 4 -12 -3 -20 -16
-19 -4 -30 15 -15 12 10 26 0 83 -59 37 -40 70 -76 71 -81 7 -17 -53 -9 -157
21 -116 34 -150 36 -190 16 -35 -19 -51 -55 -51 -115 0 -39 7 -59 33 -99 67
-99 197 -238 282 -302 47 -35 85 -68 85 -72 0 -19 -31 -18 -96 5 -84 29 -185
90 -281 168 -39 32 -88 65 -108 73 -24 11 -40 26 -48 46 -11 30 -21 37 -30 23
-13 -21 22 -67 75 -96 79 -45 199 -137 192 -148 -10 -16 -54 -10 -54 7 0 14
-3 14 -15 4 -13 -11 -22 -10 -53 7 -20 12 -72 35 -114 53 -63 26 -78 36 -87
61 -5 16 -15 29 -22 29 -6 0 -8 -7 -5 -16 3 -9 6 -20 6 -24 0 -5 12 -20 27
-34 26 -25 26 -26 8 -46 -26 -29 -50 -25 -81 15 -26 34 -44 45 -44 25 0 -5 14
-25 31 -45 25 -28 48 -40 105 -57 76 -23 95 -38 46 -38 -33 0 -191 56 -209 73
-7 7 -23 54 -37 105 -15 50 -37 133 -51 183 -19 70 -23 95 -14 105 9 11 6 14
-14 14 -14 0 -37 -4 -51 -10 -24 -9 -29 -6 -56 31 -47 66 -63 119 -58 198 2
45 9 76 18 85 11 10 57 16 155 21 123 7 313 19 354 23 8 1 43 -17 78 -39z
m-612 4 c-3 -10 -11 -40 -16 -67 -11 -59 -18 -68 -26 -36 -11 43 -23 -8 -16
-72 7 -70 -12 -81 -22 -14 -13 83 27 206 66 206 16 0 19 -4 14 -17z m15 -273
c26 -52 28 -61 15 -66 -35 -14 -86 67 -65 105 6 12 13 21 15 21 3 0 18 -27 35
-60z m565 -442 c62 -28 66 -32 49 -45 -23 -17 -34 -17 -34 2 0 18 -17 20 -22
3 -3 -9 -16 -8 -54 2 -27 7 -50 14 -52 16 -6 4 30 54 38 54 4 0 38 -14 75 -32z"/>
<path d="M772 973 c38 -77 53 -103 60 -103 13 0 10 16 -14 65 -12 25 -28 45
-36 45 -7 0 -12 -3 -10 -7z"/>
<path d="M720 846 c0 -16 28 -42 36 -33 8 7 -14 47 -26 47 -6 0 -10 -6 -10
-14z"/>
<path d="M1105 697 c-5 -13 0 -26 21 -48 31 -32 52 -37 60 -14 7 18 -23 68
-36 60 -16 -10 -12 -35 5 -35 8 0 15 -4 15 -10 0 -14 -26 -12 -38 3 -5 6 -12
23 -14 37 -4 22 -6 23 -13 7z"/>
<path d="M1261 963 c-12 -10 -25 -32 -30 -50 -14 -49 17 -100 108 -177 l78
-66 97 94 c84 82 96 98 96 128 0 79 -60 106 -144 63 l-54 -27 -38 26 c-45 30
-83 33 -113 9z m111 -45 c47 -20 52 -21 82 -5 52 27 85 31 105 13 30 -27 14
-61 -65 -136 -87 -82 -84 -83 -176 12 -39 39 -58 67 -58 83 0 14 5 25 10 25 6
0 10 7 10 15 0 21 33 19 92 -7z"/>
</g>
</svg>
